<?xml version="1.0" standalone="no"?>
<!DOCTYPE svg PUBLIC "-//W3C//DTD SVG 20010904//EN"
 "http://www.w3.org/TR/2001/REC-SVG-20010904/DTD/svg10.dtd">
<svg version="1.0" xmlns="http://www.w3.org/2000/svg"
 width="576.000000pt" height="576.000000pt" viewBox="0 0 576.000000 576.000000"
 preserveAspectRatio="xMidYMid meet">
<metadata>
Created by potrace 1.14, written by Peter Selinger 2001-2017
</metadata>
<g transform="translate(0.000000,576.000000) scale(0.100000,-0.100000)"
fill="#000000" stroke="none">
<path d="M5239 5588 c-123 -49 -237 -95 -254 -102 -16 -7 -61 -26 -100 -41
-38 -15 -79 -31 -90 -36 -11 -4 -45 -18 -75 -29 -81 -32 -92 -37 -130 -53 -19
-8 -156 -63 -305 -121 -269 -107 -293 -116 -350 -141 -34 -15 -65 -27 -80 -31
-10 -2 -418 -166 -470 -189 -16 -7 -129 -52 -250 -99 -121 -48 -229 -91 -240
-96 -11 -5 -258 -104 -550 -220 -291 -116 -543 -217 -560 -224 -28 -12 -146
-59 -190 -76 -11 -4 -33 -13 -50 -21 -16 -7 -32 -13 -35 -14 -16 -5 -62 -23
-120 -48 -19 -8 -73 -29 -120 -46 -47 -18 -92 -36 -101 -41 -8 -4 -47 -20 -85
-35 -38 -15 -82 -33 -99 -40 -16 -7 -68 -27 -115 -45 -47 -17 -92 -35 -100
-39 -8 -5 -98 -40 -200 -80 -102 -40 -192 -76 -201 -81 -8 -4 -47 -20 -85 -35
-129 -50 -156 -69 -190 -130 -16 -28 -14 -112 3 -146 13 -27 91 -99 107 -99 4
0 12 -5 19 -10 7 -6 95 -63 197 -128 102 -64 186 -120 188 -124 2 -4 10 -8 17
-8 8 0 20 -6 27 -12 8 -7 23 -18 33 -25 11 -6 99 -62 195 -123 96 -61 184
-117 195 -123 11 -7 22 -14 25 -17 5 -6 130 -85 196 -125 19 -11 196 -123 395
-250 l360 -230 99 -155 c55 -85 104 -160 110 -167 5 -7 10 -15 10 -18 0 -3 23
-39 50 -81 28 -41 50 -80 50 -85 0 -5 4 -9 9 -9 5 0 13 -10 17 -22 4 -13 10
-25 13 -28 4 -3 60 -88 123 -190 64 -102 120 -190 125 -196 4 -5 13 -19 20
-30 6 -10 62 -98 123 -194 61 -96 117 -184 123 -195 7 -10 17 -25 24 -32 6 -7
15 -22 18 -33 3 -11 11 -20 16 -20 5 0 9 -5 9 -12 0 -7 17 -37 38 -68 20 -30
42 -63 47 -72 6 -10 50 -81 100 -159 88 -139 139 -198 173 -200 9 -1 33 -3 52
-5 52 -6 96 13 135 59 19 22 35 44 35 48 0 3 8 24 17 45 9 22 17 41 18 44 1 8
82 212 101 255 10 22 18 42 19 45 2 13 68 176 74 185 4 6 13 28 20 50 7 22 19
54 26 70 7 17 22 53 34 82 11 28 26 64 33 80 6 15 12 30 12 33 4 14 100 258
110 275 5 11 11 22 11 25 1 10 49 128 76 186 10 23 19 44 19 48 0 10 218 557
230 578 6 10 10 22 10 28 0 6 9 29 19 53 11 23 40 95 66 160 25 66 50 126 55
135 5 10 41 100 80 202 40 102 76 191 82 198 6 6 8 12 5 12 -3 0 5 24 18 54
13 30 21 57 18 60 -4 3 -1 6 5 6 7 0 12 7 12 16 0 9 6 28 14 42 7 15 28 65 46
112 18 47 39 99 45 115 7 17 27 66 44 110 18 44 36 89 41 100 4 11 22 56 39
100 18 44 36 88 41 97 6 10 10 25 10 33 0 8 4 15 8 15 5 0 9 6 9 14 0 12 23
73 53 141 5 11 50 124 100 250 50 127 95 239 100 250 5 11 41 101 80 200 39
99 75 191 81 205 6 14 17 39 24 55 7 17 30 75 51 130 20 55 41 104 46 109 4 6
8 16 8 23 0 7 9 32 19 56 66 148 83 201 79 249 -6 54 -44 110 -94 138 -59 34
-106 24 -345 -72z m-66 -440 c-9 -24 -46 -117 -83 -208 l-67 -165 -1308 -1308
c-719 -719 -1311 -1305 -1314 -1302 -3 4 -26 36 -51 73 -33 49 -64 79 -115
114 -38 26 -69 51 -68 55 1 5 588 595 1305 1312 l1303 1304 105 42 c58 24 150
61 205 84 55 22 101 40 102 41 2 0 -5 -19 -14 -42z"/>
</g>
</svg>
